# xmcd
#
# Track frame offsets: 
#        150
#        18038
#        36197
#        57381
#        72138
#        89539
#        105022
#        122565
#        139161
#        157861
#        178032
#        190808
#        210252
#        227100
#        244990
#        262238
#        280435
#        299287
#        318763
#        331322
#
# Disc length: 4651 seconds
#
# Revision: 0
# Processed by: cddbd v1.5.1PL2 Copyright (c) Steve Scherf et al.
# Submitted via: ExactAudioCopy v0.95a3
#
DISCID=19122914
DTITLE=Mustafa Sandal - Gold Hits
DYEAR=2006
DGENRE=Pop
TTITLE0=Aya Benzer
TTITLE1=Kopman Lazim
TTITLE2=Araba
TTITLE3=Yok Gerekcem (Feat. Natalia)
TTITLE4=Helal Et
TTITLE5=Pazara Kadar
TTITLE6=Gel Askim
TTITLE7=All My Life
TTITLE8=Gesmis Olsun
TTITLE9=Fikra
TTITLE10=She's In Love
TTITLE11=Tusuma Bas
TTITLE12=Story
TTITLE13=Moonlight
TTITLE14=Isyamkar
TTITLE15=Aptal Asik
TTITLE16=Bizi Bozar
TTITLE17=Knife
TTITLE18=Hava Atma
TTITLE19=Kavruldak
EXTD=
EXTT0=
EXTT1=
EXTT2=
EXTT3=
EXTT4=
EXTT5=
EXTT6=
EXTT7=
EXTT8=
EXTT9=
EXTT10=
EXTT11=
EXTT12=
EXTT13=
EXTT14=
EXTT15=
EXTT16=
EXTT17=
EXTT18=
EXTT19=
PLAYORDER=
